<svg version="1.1" xmlns="http://www.w3.org/2000/svg" xmlns:xlink="http://www.w3.org/1999/xlink">
    <symbol id="ico-fb" viewBox="0 0 9 16">
        <path d="M6 9.2H8.14286L9 6H6V4.4C6 3.576 6 2.8 7.71429 2.8H9V0.112C8.72057 0.0776001 7.66543 0 6.55114 0C4.224 0 2.57143 1.3256 2.57143 3.76V6H0V9.2H2.57143V16H6V9.2Z"
              fill="#1F1E25"/>
    </symbol>
    <symbol id="ico-inst" viewBox="0 0 16 16">
        <path d="M8 0C10.1736 0 10.4448 0.00799995 11.2976 0.048C12.1496 0.088 12.7296 0.2216 13.24 0.42C13.768 0.6232 14.2128 0.8984 14.6576 1.3424C15.0644 1.74232 15.3792 2.22607 15.58 2.76C15.7776 3.2696 15.912 3.8504 15.952 4.7024C15.9896 5.5552 16 5.8264 16 8C16 10.1736 15.992 10.4448 15.952 11.2976C15.912 12.1496 15.7776 12.7296 15.58 13.24C15.3797 13.7742 15.0649 14.2581 14.6576 14.6576C14.2576 15.0643 13.7738 15.379 13.24 15.58C12.7304 15.7776 12.1496 15.912 11.2976 15.952C10.4448 15.9896 10.1736 16 8 16C5.8264 16 5.5552 15.992 4.7024 15.952C3.8504 15.912 3.2704 15.7776 2.76 15.58C2.22586 15.3796 1.74202 15.0648 1.3424 14.6576C0.935525 14.2577 0.620745 13.774 0.42 13.24C0.2216 12.7304 0.088 12.1496 0.048 11.2976C0.0104 10.4448 0 10.1736 0 8C0 5.8264 0.00799995 5.5552 0.048 4.7024C0.088 3.8496 0.2216 3.2704 0.42 2.76C0.620189 2.22574 0.935043 1.74186 1.3424 1.3424C1.74214 0.935385 2.22594 0.620583 2.76 0.42C3.2704 0.2216 3.8496 0.088 4.7024 0.048C5.5552 0.0104 5.8264 0 8 0ZM8 4C6.93913 4 5.92172 4.42143 5.17157 5.17157C4.42143 5.92172 4 6.93913 4 8C4 9.06087 4.42143 10.0783 5.17157 10.8284C5.92172 11.5786 6.93913 12 8 12C9.06087 12 10.0783 11.5786 10.8284 10.8284C11.5786 10.0783 12 9.06087 12 8C12 6.93913 11.5786 5.92172 10.8284 5.17157C10.0783 4.42143 9.06087 4 8 4ZM13.2 3.8C13.2 3.53478 13.0946 3.28043 12.9071 3.09289C12.7196 2.90536 12.4652 2.8 12.2 2.8C11.9348 2.8 11.6804 2.90536 11.4929 3.09289C11.3054 3.28043 11.2 3.53478 11.2 3.8C11.2 4.06522 11.3054 4.31957 11.4929 4.50711C11.6804 4.69464 11.9348 4.8 12.2 4.8C12.4652 4.8 12.7196 4.69464 12.9071 4.50711C13.0946 4.31957 13.2 4.06522 13.2 3.8ZM8 5.6C8.63652 5.6 9.24697 5.85286 9.69706 6.30294C10.1471 6.75303 10.4 7.36348 10.4 8C10.4 8.63652 10.1471 9.24697 9.69706 9.69706C9.24697 10.1471 8.63652 10.4 8 10.4C7.36348 10.4 6.75303 10.1471 6.30294 9.69706C5.85286 9.24697 5.6 8.63652 5.6 8C5.6 7.36348 5.85286 6.75303 6.30294 6.30294C6.75303 5.85286 7.36348 5.6 8 5.6Z"
              fill="#1F1E25"/>
    </symbol>
    <symbol id="ico-tw" viewBox="0 0 16 13">
        <path d="M15.9992 1.54324C15.4 1.80812 14.7645 1.98209 14.1138 2.05937C14.7996 1.64947 15.313 1.00438 15.5581 0.244297C14.9144 0.627078 14.2088 0.895338 13.4733 1.04045C12.9793 0.512227 12.3245 0.161908 11.6106 0.0439529C10.8968 -0.0740019 10.164 0.047017 9.52611 0.388195C8.88822 0.729374 8.38099 1.2716 8.08329 1.93057C7.78559 2.58954 7.71409 3.32833 7.87991 4.0321C6.57465 3.96673 5.29775 3.62777 4.13209 3.03724C2.96644 2.4467 1.93809 1.6178 1.11381 0.604331C0.822049 1.10512 0.668725 1.67441 0.669545 2.2539C0.669545 3.39126 1.24882 4.39606 2.12951 4.98435C1.60833 4.96795 1.09861 4.8273 0.642857 4.57411V4.6149C0.643014 5.37238 0.905313 6.1065 1.38528 6.69279C1.86525 7.27907 2.53335 7.68144 3.27629 7.83167C2.79248 7.96269 2.28517 7.98201 1.79278 7.88815C2.00225 8.54016 2.41052 9.11038 2.96043 9.51897C3.51034 9.92757 4.17436 10.1541 4.8595 10.1668C4.17856 10.7012 3.39888 11.0963 2.56506 11.3294C1.73123 11.5625 0.859598 11.6291 0 11.5253C1.50055 12.4897 3.24733 13.0017 5.0314 13C11.0699 13 14.3721 8.0011 14.3721 3.66579C14.3721 3.5246 14.3681 3.38184 14.3619 3.24222C15.0046 2.778 15.5593 2.20293 16 1.54403L15.9992 1.54324Z"
              fill="#1F1E25"/>
    </symbol>
    <symbol id="ico-yt" viewBox="0 0 16 13">
        <path d="M15.6344 2.02963C16 3.4775 16 6.5 16 6.5C16 6.5 16 9.5225 15.6344 10.9704C15.4312 11.7707 14.8368 12.4004 14.084 12.6132C12.7168 13 8 13 8 13C8 13 3.2856 13 1.916 12.6132C1.16 12.3971 0.5664 11.7683 0.3656 10.9704C2.38419e-08 9.5225 0 6.5 0 6.5C0 6.5 2.38419e-08 3.4775 0.3656 2.02963C0.5688 1.22931 1.1632 0.599625 1.916 0.38675C3.2856 -1.45286e-07 8 0 8 0C8 0 12.7168 -1.45286e-07 14.084 0.38675C14.84 0.602875 15.4336 1.23175 15.6344 2.02963ZM6.4 9.34375L11.2 6.5L6.4 3.65625V9.34375Z"
              fill="#1F1E25"/>
    </symbol>
    <symbol id="logo" viewBox="0 0 150 27">
        <path d="M51.1 26H48.08V14.24H44.58C44.5 14.8533 44.4133 15.52 44.32 16.24C44.24 16.96 44.1467 17.6933 44.04 18.44C43.9467 19.1733 43.8467 19.8733 43.74 20.54C43.6333 21.1933 43.5267 21.7733 43.42 22.28C43.2467 23.1067 43.0133 23.8133 42.72 24.4C42.44 24.9867 42.0467 25.4333 41.54 25.74C41.0467 26.0467 40.4 26.2 39.6 26.2C39.08 26.2 38.6 26.1267 38.16 25.98V23.5C38.3333 23.5533 38.5 23.6 38.66 23.64C38.8333 23.68 39.02 23.7 39.22 23.7C39.6067 23.7 39.9 23.5 40.1 23.1C40.3133 22.6867 40.5267 21.92 40.74 20.8C40.82 20.3733 40.9333 19.7067 41.08 18.8C41.2267 17.8933 41.3867 16.8333 41.56 15.62C41.7467 14.3933 41.92 13.0933 42.08 11.72H51.1V26ZM54.7023 11.72H57.4223V18.62C57.4223 18.9533 57.4157 19.3267 57.4023 19.74C57.389 20.1533 57.3757 20.56 57.3623 20.96C57.349 21.3467 57.3357 21.6867 57.3223 21.98C57.309 22.26 57.2957 22.4533 57.2823 22.56H57.3423L63.9423 11.72H67.5623V26H64.8623V19.14C64.8623 18.78 64.869 18.3867 64.8823 17.96C64.8957 17.52 64.909 17.1 64.9223 16.7C64.949 16.3 64.969 15.9533 64.9823 15.66C65.009 15.3533 65.029 15.1533 65.0423 15.06H64.9623L58.3423 26H54.7023V11.72ZM80.1872 11.72V14.22H74.1872V26H71.1672V11.72H80.1872ZM89.7119 26L88.6719 22.6H83.4719L82.4319 26H79.1719L84.2119 11.66H87.9119L92.9719 26H89.7119ZM87.9519 20.06L86.9119 16.74C86.8452 16.5133 86.7585 16.2267 86.6519 15.88C86.5452 15.5333 86.4385 15.18 86.3319 14.82C86.2252 14.46 86.1385 14.1467 86.0719 13.88C86.0052 14.1467 85.9119 14.48 85.7919 14.88C85.6852 15.2667 85.5785 15.64 85.4719 16C85.3785 16.3467 85.3052 16.5933 85.2519 16.74L84.2319 20.06H87.9519ZM100.503 26V11.72H109.523V14.22H103.523V17.2H104.723C106.07 17.2 107.17 17.3867 108.023 17.76C108.89 18.1333 109.53 18.6467 109.943 19.3C110.356 19.9533 110.563 20.7 110.563 21.54C110.563 22.9533 110.09 24.0533 109.143 24.84C108.21 25.6133 106.716 26 104.663 26H100.503ZM103.523 23.52H104.543C105.463 23.52 106.183 23.3733 106.703 23.08C107.236 22.7867 107.503 22.2733 107.503 21.54C107.503 20.78 107.216 20.28 106.643 20.04C106.07 19.8 105.29 19.68 104.303 19.68H103.523V23.52ZM117.497 14.86C118.964 14.86 120.084 15.18 120.857 15.82C121.644 16.4467 122.037 17.4133 122.037 18.72V26H119.957L119.377 24.52H119.297C118.83 25.1067 118.337 25.5333 117.817 25.8C117.297 26.0667 116.584 26.2 115.677 26.2C114.704 26.2 113.897 25.92 113.257 25.36C112.617 24.7867 112.297 23.9133 112.297 22.74C112.297 21.58 112.704 20.7267 113.517 20.18C114.33 19.62 115.55 19.3133 117.177 19.26L119.077 19.2V18.72C119.077 18.1467 118.924 17.7267 118.617 17.46C118.324 17.1933 117.91 17.06 117.377 17.06C116.844 17.06 116.324 17.14 115.817 17.3C115.31 17.4467 114.804 17.6333 114.297 17.86L113.317 15.84C113.904 15.5333 114.55 15.2933 115.257 15.12C115.977 14.9467 116.724 14.86 117.497 14.86ZM119.077 20.94L117.917 20.98C116.957 21.0067 116.29 21.18 115.917 21.5C115.544 21.82 115.357 22.24 115.357 22.76C115.357 23.2133 115.49 23.54 115.757 23.74C116.024 23.9267 116.37 24.02 116.797 24.02C117.437 24.02 117.977 23.8333 118.417 23.46C118.857 23.0733 119.077 22.5333 119.077 21.84V20.94ZM128.067 15.08V19.28H132.227V15.08H135.207V26H132.227V21.5H128.067V26H125.087V15.08H128.067ZM145.49 15.08H148.77L144.45 20.32L149.15 26H145.77L141.31 20.46V26H138.33V15.08H141.31V20.38L145.49 15.08Z"
              fill="#1F1E25"/>
        <path d="M16.75 1H13.8333L1 22.3415H4.79167L6.54167 19.2927L16.75 1Z" fill="#2C36F2"/>
        <path d="M2.75 26H27.25L16.75 7.09756L15 10.1463L20.25 19.2927L22 22.3415H4.79167H1L2.75 26Z" fill="#2C36F2"/>
        <path d="M22 22.3415L20.25 19.2927H9.75H6.54167L4.79167 22.3415H22Z" fill="#2C36F2"/>
        <path d="M27.25 26L29 22.3415L16.75 1L6.54167 19.2927H9.75L15 10.1463L16.75 7.09756L27.25 26Z" fill="#2C36F2"/>
        <path d="M15 10.1463L9.75 19.2927H20.25L15 10.1463Z" fill="#2C36F2"/>
        <path d="M27.25 26H2.75L1 22.3415M27.25 26L29 22.3415L16.75 1M27.25 26L16.75 7.09756L15 10.1463M16.75 1H13.8333L1 22.3415M16.75 1L6.54167 19.2927M1 22.3415H4.79167M15 10.1463L9.75 19.2927M15 10.1463L20.25 19.2927M9.75 19.2927H20.25M9.75 19.2927H6.54167M20.25 19.2927L22 22.3415H4.79167M6.54167 19.2927L4.79167 22.3415"
              stroke="#F6F7FF"/>
    </symbol>
    <symbol id="location" viewBox="0 0 37 42" fill="none">
        <path d="M30.8744 29.2842L18.5 41 6.12556 29.2842c-2.4474-2.3172-4.11409-5.2694-4.78931-8.4834-.675224-3.2139-.32865-6.5453.99589-9.5728 1.32454-3.02751 3.56755-5.61515 6.44541-7.43571C11.6554 1.97172 15.0388 1 18.5 1s6.8446.97172 9.7225 2.79229c2.8778 1.82056 5.1208 4.4082 6.4454 7.43571 1.3245 3.0275 1.6711 6.3589.9958 9.5728-.6752 3.214-2.3419 6.1662-4.7893 8.4834z"
              fill="#2C36F2"/>
        <path d="M19.5179 10.2308h-1.6965l-7.465 12.2576h2.2056l1.0179-1.7511 5.938-10.5065z" fill="#2C36F2"/>
        <path d="M11.3744 24.5897h14.2512L19.5179 13.733 18.5 15.4841l3.0538 5.2532 1.018 1.7511H10.3564l1.018 2.1013z"
              fill="#2C36F2"/>
        <path d="M22.5718 22.4884l-1.018-1.7511H13.5799l-1.0179 1.7511h10.0098z" fill="#2C36F2"/>
        <path d="M25.6256 24.5897l1.018-2.1013-7.1257-12.2576-5.938 10.5065h1.8663L18.5 15.4841l1.0179-1.7511 6.1077 10.8567z"
              fill="#2C36F2"/>
        <path d="M18.5 15.4841l-3.0538 5.2532h6.1076L18.5 15.4841z" fill="#2C36F2"/>
        <path d="M25.6256 24.5897H11.3744l-1.018-2.1013m15.2692 2.1013l1.018-2.1013-7.1257-12.2576m6.1077 14.3589L19.5179 13.733 18.5 15.4841m1.0179-5.2533h-1.6965l-7.465 12.2576m9.1615-12.2576l-5.938 10.5065m-3.2235 1.7511h2.2056m5.938-7.0043l-3.0538 5.2532M18.5 15.4841l3.0538 5.2532m-6.1076 0h6.1076m-6.1076 0h-1.8663m7.9739 0l1.018 1.7511H12.562m1.0179-1.7511l-1.0179 1.7511m18.3124 6.7958L18.5 41 6.12556 29.2842c-2.4474-2.3172-4.11409-5.2694-4.78931-8.4834-.675224-3.2139-.32865-6.5453.99589-9.5728 1.32454-3.02751 3.56755-5.61515 6.44541-7.43571C11.6554 1.97172 15.0388 1 18.5 1s6.8446.97172 9.7225 2.79229c2.8778 1.82056 5.1208 4.4082 6.4454 7.43571 1.3245 3.0275 1.6711 6.3589.9958 9.5728-.6752 3.214-2.3419 6.1662-4.7893 8.4834z"
              stroke="#F6F7FF" stroke-width=".5"/>
    </symbol>
    <symbol id="ico-vault" viewBox="0 0 34 33" fill="none">
        <path d="M4.20734 26.063H29.7924V4.36579H4.20734V26.063zm8.66076-14.2671c1.6061 0 2.9587 1.0974 3.3374 2.5765h7.5215v1.6836h-7.5215c-.3788 1.4792-1.7313 2.5767-3.3374 2.5767-1.8986 0-3.44318-1.5336-3.44318-3.4185-.00009-1.8848 1.54458-3.4183 3.44318-3.4183z"
              fill="#2C36F2"/>
        <path d="M0 0v30.4287h2.48008V33h2.96771v-2.5713H28.5522V33h2.9677v-2.5713H34V0H0zm2.51162 27.7466V2.68218H31.4884V27.7466H2.51162z"
              fill="#2C36F2"/>
    </symbol>
    <symbol id="ico-security" viewBox="0 0 28 34" fill="none">
        <path d="M27.9234 5.31216c-5.7682 0-10.1872-1.65754-13.9239-5.31216C10.2631 3.65462 5.84431 5.31216.076613 5.31216.076613 14.8295-1.88138 28.4631 13.9994 34c15.8819-5.5368 13.924-19.1704 13.924-28.68784zM12.8461 22.0601l-4.6387-4.6662 2.0769-2.0888 2.5618 2.5772 4.869-4.8974 2.0768 2.0888-6.9458 6.9864z"
              fill="#565EF5"/>
    </symbol>
    <symbol id="ico-phone" viewBox="0 0 20 34" fill="none">
        <path d="M17.6746 0H2.3254C1.04663 0 0 1.03263 0 2.29646V31.7026C0 32.9664 1.04663 34 2.3254 34h15.3492C18.9534 34 20 32.9683 20 31.7035V2.29646C20 1.03263 18.9534 0 17.6746 0zM7.54476 1.65531h4.91044c.1555 0 .2814.12435.2814.2788 0 .15349-.1259.27783-.2814.27783H7.54476c-.15542 0-.28133-.12434-.28133-.27783 0-.15445.12591-.2788.28133-.2788zM10 32.8518c-.64234 0-1.1627-.5139-1.1627-1.1492S9.35766 30.5543 10 30.5543c.6423 0 1.1627.513 1.1627 1.1483 0 .6353-.5204 1.1492-1.1627 1.1492zm8.3819-3.1018H1.61814V3.64189H18.3819V29.75z"
              fill="#565EF5"/>
    </symbol>
    <symbol id="ico-cards" viewBox="0 0 34 30" fill="none">
        <path d="M32.7022 4.39716L11.8788.035043c-.881-.1845-1.7542.378129-1.94058 1.250197l-.39561 2.51657L33.5692 8.83467l.3957-2.51656c.1863-.87175-.3817-1.73639-1.2627-1.92095zm-8.7571 4.97122c-.2432-.86701-1.1586-1.37949-2.0342-1.13912l-3.953 1.08627L8.63885 7.3633l-1.0249 4.7934-6.4036 1.7593c-.875557.2405-1.393283 1.1465-1.150448 2.0133L3.6687 28.8018c.24323.8667 1.15862 1.3795 2.03418 1.1388l20.70062-5.6864c.8755-.2408 1.3932-1.1465 1.1504-2.0136l-.6194-2.2098 2.3216.4859c.881.1848 1.7542-.3778 1.9406-1.2499l1.4689-6.8706-8.3627-1.7517-.3578-1.27612zm2.3906 6.54232l.512-2.395c.0769-.3586.4361-.5899.7983-.5142l2.4196.5071c.3626.0761.5963.4313.5198.7902l-.512 2.3951c-.0769.3586-.436.5902-.7983.5142l-2.4196-.5068c-.3629-.0764-.5966-.432-.5198-.7906zm-24.76512-.7101L22.2704 9.51455c.0266-.0071.0531-.01045.079-.01045.1166 0 .2561.07578.2969.22091l.7059 2.51719-21.2884 5.8477-.70583-2.5169c-.04423-.1579.05311-.3286.21261-.3724zm24.68522 7.3962c.0272.0977-.0013.1785-.0303.229-.0285.0505-.0837.1166-.1823.1434L5.34299 28.6556c-.02617.0071-.05305.0108-.07894.0108-.11667 0-.25617-.0761-.29695-.2212l-2.1049-7.5084 21.2884-5.848 2.1052 7.508z"
              fill="#565EF5"/>
        <path d="M8.68804 23.1106c-.09933-.3535-.47217-.5623-.82934-.4643l-2.41752.6643c-.35683.098-.56805.4674-.46872.821l.67078 2.3926c.09934.3536.47217.5623.82934.464l2.41752-.664c.35717-.098.56806-.4674.46905-.8209l-.67111-2.3927z"
              fill="#565EF5"/>
    </symbol>
</svg>
